<?xml version="1.0" encoding="UTF-8"?>
<svg id="_レイヤー_2" data-name="レイヤー_2" xmlns="http://www.w3.org/2000/svg" viewBox="0 0 209.24 145.37">
  <defs>
    <style>
      .cls-1 {
        stroke: #fff;
      }

      .cls-1, .cls-2 {
        fill: #fff;
      }

      .cls-1, .cls-3 {
        stroke-miterlimit: 10;
      }

      .cls-4 {
        fill: #1c2b73;
      }

      .cls-3 {
        fill: #fff100;
        stroke: #f5e928;
      }

      .cls-5 {
        fill: #231815;
      }
    </style>
  </defs>
  <ellipse class="cls-4" cx="104.68" cy="72.69" rx="104" ry="71.8"/>
  <g>
    <path class="cls-2" d="M171.12,95.1c14.56-23.52,14.15-44.86,5.48-50.74-8.3-5.63-23.71,3.2-26.18,4.66"/>
    <path class="cls-4" d="M167.08,84.73c8.82-14.25,8.57-27.17,3.32-30.74-5.03-3.41-14.36,1.94-15.86,2.82"/>
  </g>
  <g>
    <path class="cls-2" d="M34.53,97.97c-14.56-23.52-14.15-44.86-5.48-50.74,8.3-5.63,23.71,3.2,26.18,4.66"/>
    <path class="cls-4" d="M38.57,87.61c-8.82-14.25-8.57-27.17-3.32-30.74,5.03-3.41,14.36,1.94,15.86,2.82"/>
  </g>
  <path class="cls-3" d="M187.27,110.22c-.16.06-.33.11-.49.16-24.59,7.08-49.28,13.84-74.04,20.31-1.05.27-2.34.49-3.09-.31-.5-.53-.55-1.32-.58-2.05-.54-13.83-1.07-27.67-1.61-41.5-.35-8.95-.71-18.01-3.22-26.61-1.99-6.83-7.01-16.74,2.58-19.41,13.65-3.8,27.31-7.54,40.98-11.23,1.35-.36,2.76-.73,4.12-.43,3.39.75,4.57,4.87,5.31,8.26,5.48,25.11,21.05,46.7,30.84,70.46.2.49.4,1.05.2,1.54-.17.41-.56.64-.99.8Z"/>
  <path class="cls-3" d="M104.53,53.61c-.23,1.35-.71,2.72-1.19,3.98-8.17,21.71-12.58,44.82-12.98,68.02-.02,1.26-.09,2.66-.98,3.55-1.22,1.22-3.24.83-4.89.37-20.99-5.95-41.85-12.33-62.58-19.13-.94-.31-1.96-.69-2.4-1.57-.54-1.07.04-2.35.62-3.4,3.79-6.99,7.59-13.98,11.38-20.97,2.03-3.73,4.05-7.47,5.7-11.39,1.69-4.02,2.96-8.19,4.22-12.36,1.66-5.48,3.33-10.95,4.99-16.43,1.19-3.91,1.74-11.3,7.03-11.68,1.56-.11,3.1.35,4.59.81,13.45,4.13,26.89,8.26,40.34,12.39,2.05.63,4.26,1.38,5.44,3.16.91,1.38.99,3,.71,4.66Z"/>
  <ellipse class="cls-1" cx="55.89" cy="33.97" rx="10.41" ry="7.12"/>
  <ellipse class="cls-1" cx="60.63" cy="25.98" rx="7.12" ry="9.66" transform="translate(20.2 78.1) rotate(-75.39)"/>
  <ellipse class="cls-1" cx="72.16" cy="29.43" rx="7.61" ry="7.12"/>
  <ellipse class="cls-1" cx="84.34" cy="31.97" rx="7.61" ry="7.12"/>
  <ellipse class="cls-1" cx="94.91" cy="36.54" rx="7.61" ry="7.12"/>
  <ellipse class="cls-1" cx="66.06" cy="38.67" rx="9.13" ry="7.12"/>
  <ellipse class="cls-1" cx="78.96" cy="41.92" rx="7.61" ry="7.12"/>
  <ellipse class="cls-1" cx="89.47" cy="44.66" rx="7.61" ry="7.12"/>
  <ellipse class="cls-1" cx="101.14" cy="43.57" rx="7.61" ry="7.12"/>
  <ellipse class="cls-1" cx="99.56" cy="51.78" rx="7.61" ry="7.12"/>
  <ellipse class="cls-1" cx="98.74" cy="68.8" rx="12.13" ry="4.89" transform="translate(-5.46 129.01) rotate(-64.89)"/>
  <ellipse class="cls-1" cx="96.81" cy="80.87" rx="12.13" ry="2.78" transform="translate(-17.5 134.22) rotate(-64.89)"/>
  <ellipse class="cls-1" cx="107.17" cy="34.81" rx="7.61" ry="7.12"/>
  <ellipse class="cls-1" cx="114.79" cy="27.69" rx="7.61" ry="7.12"/>
  <ellipse class="cls-1" cx="126.84" cy="25.46" rx="7.61" ry="7.12"/>
  <ellipse class="cls-1" cx="138.55" cy="23.31" rx="7.61" ry="7.12"/>
  <ellipse class="cls-1" cx="150.46" cy="23.31" rx="7.61" ry="7.12"/>
  <ellipse class="cls-1" cx="155.59" cy="30.43" rx="7.61" ry="7.12"/>
  <ellipse class="cls-1" cx="144.74" cy="33.97" rx="7.61" ry="7.12"/>
  <ellipse class="cls-1" cx="132.62" cy="34.81" rx="7.61" ry="7.12"/>
  <ellipse class="cls-1" cx="122.4" cy="38.67" rx="7.61" ry="7.12"/>
  <ellipse class="cls-1" cx="114.79" cy="44.66" rx="7.12" ry="7.61" transform="translate(64.96 157.3) rotate(-87.4)"/>
  <ellipse class="cls-1" cx="99.5" cy="60.15" rx="12.13" ry="6.2" transform="translate(2.81 124.73) rotate(-64.89)"/>
  <path class="cls-5" d="M59.74,57.65v15.06l17.08-17.81c.82-.86,1.52-1.49,2.09-1.9.58-.41,1.34-.62,2.3-.62,1.25,0,2.26.37,3.03,1.1.77.73,1.16,1.63,1.16,2.68,0,1.27-.65,2.53-1.96,3.78l-10.58,10.02,12.19,17.46c.86,1.21,1.5,2.27,1.93,3.18.43.91.64,1.79.64,2.65,0,.96-.38,1.79-1.13,2.49-.75.7-1.77,1.05-3.06,1.05-1.21,0-2.2-.26-2.96-.78-.76-.52-1.41-1.21-1.93-2.07-.53-.86-1-1.64-1.41-2.34l-10.28-15.82-7.12,6.83v8.88c0,1.8-.41,3.13-1.23,4-.82.87-1.88,1.3-3.16,1.3-.74,0-1.46-.2-2.14-.59-.68-.39-1.21-.92-1.58-1.58-.27-.55-.44-1.18-.5-1.9-.06-.72-.09-1.77-.09-3.13v-31.93c0-1.76.39-3.08,1.16-3.96.77-.88,1.82-1.32,3.15-1.32s2.37.44,3.18,1.3c.81.87,1.22,2.19,1.22,3.97Z"/>
  <path class="cls-5" d="M136.62,58.37v31.26h17.64c1.41,0,2.49.34,3.24,1.03.75.68,1.13,1.54,1.13,2.58s-.37,1.91-1.11,2.56c-.74.66-1.83.98-3.25.98h-21.01c-1.89,0-3.26-.42-4.09-1.26-.83-.84-1.25-2.2-1.25-4.07v-33.08c0-1.76.4-3.08,1.19-3.96s1.83-1.32,3.12-1.32,2.37.44,3.18,1.3c.81.87,1.22,2.19,1.22,3.97Z"/>
  <g>
    <path class="cls-5" d="M42.23,95.74c.14-.44.42-.6.82-.47.4.13.53.42.38.86l-.26.79,4.6,1.5c.27.09.47.28.62.57.15.29.18.57.1.84l-1.71,5.23c-.09.26-.28.47-.57.62-.29.15-.57.18-.84.09l-5.66-1.85c.24,1.2.71,2.26,1.4,3.17,1.46-.11,2.77-.29,3.94-.55.59-.15.94-.03,1.07.35.05.46-.24.73-.86.82-1.03.15-2.24.25-3.63.28,1.07,1.38,2.32,2.52,3.75,3.42.49.31.65.63.5.97-.22.37-.61.36-1.17-.02-3.46-2.2-5.5-5.14-6.12-8.81l-3.6-1.17-1.64,5.03c1.55.36,3.27.6,5.14.72.43.04.64.21.65.5-.03.38-.31.56-.84.53-2.82-.24-5.05-.55-6.69-.94-.62-.2-.87-.5-.74-.9.09-.26.34-.38.77-.33.24.03.49.09.76.17l3.71-11.39c.09-.26.27-.47.57-.62.29-.15.57-.18.84-.09l4.46,1.46.26-.79ZM35.28,101.46l9.99,3.26c.35.12.59,0,.71-.36l.58-1.79-10.53-3.43-.76,2.32ZM36.9,96.49l-.56,1.72,10.53,3.43.56-1.72c.12-.35,0-.59-.36-.7l-9.46-3.08c-.36-.12-.59,0-.71.36Z"/>
    <path class="cls-5" d="M54.02,100.02c.44.14.57.43.38.86-.45.93-.83,1.71-1.13,2.34-.7,1.39-1.22,2.61-1.56,3.67-.25.75-.43,1.47-.56,2.16-.3,1.37-.26,2.38.11,3.04.18.35.44.46.78.33.94-.47,2.12-1.85,3.55-4.12.17-.24.41-.28.71-.14.28.19.32.45.12.77l-.18.31c-1.15,1.87-2.16,3.16-3.02,3.85-.86.69-1.56.96-2.1.78-.61-.25-1.02-.94-1.24-2.09-.23-1.25.03-3.02.77-5.32.32-.97.72-2.06,1.21-3.27.43-1.03.86-1.96,1.28-2.81.23-.41.52-.54.86-.38ZM62.77,103.24c.31-.05.54.08.69.37.7,1.94.99,3.89.89,5.86-.07,1.88-.48,3.95-1.21,6.2-.16.49-.48.65-.97.49-.49-.16-.65-.48-.5-.97.76-2.34,1.2-4.35,1.3-6.02.07-1.73-.14-3.49-.64-5.26-.03-.35.11-.57.44-.66Z"/>
    <path class="cls-5" d="M76.91,106.89c.14-.44.42-.6.81-.47.4.13.53.42.38.86l-.37,1.12,6.06,1.98c.36.12.48.33.38.64-.1.31-.33.41-.68.29l-12.06-3.93c-.22-.07-.37,0-.44.22l-1.75,5.37c-.68,2.08-1.8,3.95-3.38,5.64-.35.33-.68.36-.99.12-.18-.21-.14-.46.1-.77,1.36-1.46,2.4-3.3,3.12-5.5l1.77-5.43c.09-.26.27-.47.57-.62.29-.15.57-.18.84-.09l5.26,1.71.37-1.12ZM76.23,110.11c.12-.35.33-.48.64-.38.31.1.41.33.29.68l-.41,1.26,5.6,1.82c.35.12.48.33.38.64-.1.31-.33.41-.68.29l-5.6-1.82-.82,2.52,4.6,1.5c.27.09.47.28.62.57.15.29.18.57.1.84l-1.47,4.5c-.09.26-.28.47-.57.62-.29.15-.57.18-.84.09l-8.79-2.87c-.27-.09-.47-.28-.63-.57-.15-.29-.18-.57-.09-.84l1.47-4.5c.09-.26.27-.47.57-.62.29-.15.57-.18.84-.09l3.26,1.06,1.53-4.7ZM70.82,115.16l-1.21,3.71c-.11.35,0,.59.36.7l7.99,2.6c.36.12.59,0,.71-.36l1.21-3.71c.11-.35,0-.59-.36-.7l-7.99-2.6c-.36-.12-.59,0-.7.36Z"/>
  </g>
  <g>
    <path class="cls-5" d="M116.44,110.5c1.67.45,2.93.97,3.77,1.56.25.22.3.49.15.82-.17.29-.44.34-.83.16-1.27-.76-2.24-1.26-2.89-1.52-.27-.12-.52-.03-.72.27-.69,1.2-1.42,2.32-2.2,3.35-.27.27-.5.31-.69.12-.21-.23-.21-.5,0-.79.74-1.17,1.41-2.27,2-3.3.36-.63.83-.85,1.41-.68ZM121.46,108.98c.31-.09.52.05.62.41.12.45.21,1.03.26,1.74l4.53-1.25c.81-.22,1.31,0,1.49.67.17.63.24,1.38.19,2.26-.07,1.17-.24,2.21-.52,3.11-.12.27-.31.37-.57.3-.28-.12-.38-.33-.32-.63.32-2.01.36-3.42.14-4.23-.1-.36-.33-.49-.69-.39l-2.16.6,1.07,3.89c.49,1.79,2.41,3.82,5.74,6.08.28.31.31.59.09.84-.31.28-.64.3-1,.06-1.45-.85-2.95-2.27-4.51-4.25.02,2.36-1.11,4.67-3.4,6.93-.2.15-.39.18-.56.08-.3-.21-.32-.47-.07-.78l.45-.48c-.31-.25-.62-.48-.92-.69-1.88,1.43-3.58,2.41-5.08,2.92-.35.14-.59.06-.72-.24-.09-.31.02-.54.32-.67l.64-.32-2.4-8.73c-.16-.58.05-.95.64-1.12l1.62-.45-.31-1.14c-.1-.36,0-.58.32-.67.31-.09.52.05.62.41l.31,1.14,1.49-.41c.58-.16.96.05,1.12.63l1.24,4.5c.16.58-.05.95-.64,1.12l-3.98,1.1.89,3.22c1.03-.48,2.13-1.14,3.3-1.99-.32-.3-.64-.57-.95-.82-.21-.23-.23-.47-.05-.71.19-.2.42-.21.71-.05.94.61,1.76,1.3,2.46,2.07,1.82-2.38,2.29-5.13,1.43-8.27l-.81-2.96-1.08.3c.05,1.77-.11,3.14-.47,4.1-.15.33-.33.45-.55.37-.26-.07-.36-.26-.3-.57.42-1.99.43-4.14.04-6.44-.04-.33.07-.53.34-.6ZM115.14,116.35l.39,1.41,3.92-1.08-.39-1.41c-.06-.22-.21-.3-.43-.24l-3.24.89c-.23.06-.31.21-.25.43ZM116.25,120.38l3.58-.99c.22-.06.31-.2.24-.43l-.37-1.34-3.92,1.08.46,1.68Z"/>
    <path class="cls-5" d="M138.16,104.95c-.02-.43.18-.67.6-.74.37-.05.59.13.66.54.07.8.12,1.51.15,2.12,1.99-.35,3.62-.13,4.91.67,1.26.71,2.15,1.99,2.65,3.82.53,1.93.32,3.65-.61,5.16-.94,1.32-2.66,2.32-5.13,3-.37.05-.6-.08-.69-.39-.09-.31.04-.54.39-.69,2.03-.56,3.42-1.3,4.18-2.24.9-1.31,1.12-2.79.66-4.45-.44-1.61-1.22-2.75-2.32-3.41-1.2-.68-2.53-.82-3.97-.42.01,2.16-.07,3.87-.26,5.13-.1,1.04-.33,2.23-.68,3.58l.66.54c.27.26.29.55.09.84-.23.21-.46.27-.68.19l-.52-.29c-.24.55-.54,1.04-.9,1.48-.38.39-.83.66-1.38.81-.77.21-1.5.08-2.22-.4-.73-.52-1.23-1.3-1.51-2.33-.17-.62-.25-1.25-.23-1.89.04-1.07.39-2.28,1.04-3.61-.82-1.22-1.46-2.2-1.9-2.94-.21-.42-.15-.73.18-.92.39-.16.68-.09.85.2.41.8.92,1.67,1.52,2.62.8-.95,1.57-1.68,2.29-2.22.68-.52,1.49-1.01,2.43-1.46-.06-.75-.15-1.52-.27-2.31ZM133.09,115.31c-.09.56-.04,1.17.14,1.84.22.81.57,1.38,1.06,1.73.43.32.89.41,1.38.27.77-.21,1.36-.88,1.77-2.01-1.09-.95-2.31-2.33-3.68-4.12-.38.92-.6,1.68-.68,2.28ZM134.41,111.91c1.25,1.73,2.37,3.08,3.37,4.06.25-.84.44-1.9.57-3.19.13-1.29.16-2.74.11-4.37-1.74.91-3.09,2.08-4.05,3.5Z"/>
    <path class="cls-5" d="M159.6,99.7c.19.33.19.7,0,1.08-.23.4-.6.89-1.12,1.47-.71.77-1.37,1.53-1.99,2.28l-1.92,2.26c1.33-.8,2.47-1.33,3.41-1.59,1.85-.51,3.42-.41,4.73.29.92.52,1.55,1.4,1.89,2.66.38,1.39.02,2.72-1.08,3.98-1.12,1.22-2.6,2.09-4.44,2.6-2.21.61-3.93.58-5.18-.09-.66-.45-1.06-.94-1.21-1.47-.14-.49-.1-.96.12-1.41.38-.73,1.09-1.24,2.12-1.52,1.04-.29,2.15-.18,3.35.3.94.42,1.83,1.11,2.68,2.08.78-.36,1.43-.95,1.98-1.77.47-.76.59-1.56.35-2.41-.26-.94-.76-1.62-1.51-2.04-1.02-.54-2.25-.61-3.69-.21-1.4.38-2.58.93-3.55,1.63-1.25.92-2.51,2.16-3.77,3.71-.31.28-.64.3-1,.06-.23-.32-.25-.63-.04-.93,2.71-2.82,5.58-6.21,8.61-10.17l-1.92.67-2.65.95-2.06.71-1.85.66c-.44.17-.72.03-.84-.42-.11-.4.04-.66.44-.77,3.16-1.01,6.13-2,8.92-2.96.51-.09.91.04,1.2.39ZM153.74,112.73c.17.63.7,1.06,1.59,1.3.83.2,1.86.14,3.07-.2.41-.11.71-.22.93-.33.21-.11.36-.2.44-.26-.45-.6-1.06-1.13-1.82-1.59-1.07-.53-2.03-.67-2.88-.44-1.04.29-1.48.79-1.33,1.52Z"/>
    <path class="cls-5" d="M171.56,95.61c-.12-.45.02-.73.42-.84.41-.11.67.06.79.5l.31,1.14,6.15-1.69c.36-.1.58,0,.67.32.09.31-.05.52-.41.62l-12.22,3.37c-.23.06-.31.21-.25.43l1.5,5.44c.58,2.11.67,4.29.28,6.57-.12.46-.37.68-.77.64-.26-.07-.37-.31-.34-.7.33-1.97.19-4.07-.43-6.31l-1.52-5.51c-.07-.27-.03-.55.13-.83.16-.29.38-.47.65-.54l5.34-1.47-.31-1.14ZM172.76,98.67c-.1-.36,0-.58.32-.67s.52.05.62.41l.35,1.28,5.67-1.56c.36-.1.58,0,.67.32.09.31-.05.52-.41.62l-5.67,1.56.7,2.55,4.66-1.28c.27-.07.55-.03.83.13.29.16.47.38.54.65l1.26,4.57c.07.27.03.54-.14.83-.16.29-.38.47-.65.54l-8.92,2.46c-.27.07-.55.03-.84-.13-.29-.16-.47-.38-.54-.65l-1.26-4.57c-.07-.27-.03-.54.13-.83.16-.29.38-.47.65-.54l3.31-.91-1.31-4.77ZM171.04,105.87l1.04,3.76c.1.36.33.49.69.39l8.1-2.23c.36-.1.49-.33.39-.69l-1.04-3.76c-.1-.36-.33-.49-.69-.39l-8.1,2.23c-.36.1-.49.33-.39.69Z"/>
  </g>
</svg>